<svg width="30" height="30" viewBox="0 0 30 30" fill="none" xmlns="http://www.w3.org/2000/svg">
<rect width="30" height="30" fill="white"/>
<path d="M7.18461 17.6512L7.1846 17.6512C7.17153 17.6643 7.15805 17.6777 7.14423 17.6914C6.99206 17.8426 6.79945 18.0341 6.66256 18.2759L7.52597 18.7647L6.66256 18.2759C6.52568 18.5176 6.46061 18.7813 6.40921 18.9896C6.40454 19.0085 6.39999 19.027 6.3955 19.0449L5.48197 22.699C5.47917 22.7102 5.47625 22.7218 5.47323 22.7339C5.43641 22.8803 5.3854 23.0833 5.36783 23.2629C5.34762 23.4696 5.34093 23.9215 5.70971 24.2903L6.41682 23.5832L5.70971 24.2903C6.07849 24.6591 6.53045 24.6524 6.73714 24.6322C6.91676 24.6146 7.11968 24.5636 7.26617 24.5268C7.27817 24.5237 7.28979 24.5208 7.30099 24.518L10.9551 23.6045C10.973 23.6 10.9915 23.5955 11.0104 23.5908C11.2187 23.5394 11.4824 23.4743 11.7241 23.3374L11.2314 22.4672L11.7242 23.3374C11.9659 23.2005 12.1574 23.0079 12.3086 22.8558C12.3223 22.8419 12.3357 22.8285 12.3488 22.8154L21.7929 13.3713C21.8057 13.3585 21.8186 13.3457 21.8314 13.3329C22.1313 13.033 22.4228 12.7417 22.6308 12.469C22.8653 12.1616 23.0858 11.7637 23.0858 11.25C23.0858 10.7363 22.8653 10.3384 22.6308 10.031C22.4228 9.75831 22.1313 9.46694 21.8314 9.16713C21.8186 9.15433 21.8057 9.14152 21.7929 9.12868L21.7929 9.12868L21.7426 9.07843L20.8713 8.20711C20.8585 8.19427 20.8457 8.18144 20.8329 8.16863C20.533 7.86871 20.2417 7.57723 19.969 7.36919C19.6616 7.13466 19.2637 6.91421 18.75 6.91421C18.2363 6.91421 17.8384 7.13466 17.531 7.36919C17.2583 7.57723 16.9669 7.86871 16.6671 8.16863C16.6543 8.18144 16.6415 8.19427 16.6287 8.20711L7.18461 17.6512Z" stroke="#29A073" stroke-width="2"/>
<path d="M15.625 9.375L19.375 6.875L23.125 10.625L20.625 14.375L15.625 9.375Z" fill="#29A073"/>
</svg>
