<svg width="36" height="36" viewBox="0 0 36 36" fill="none" xmlns="http://www.w3.org/2000/svg">
<path d="M8.6846 21.4012L8.68461 21.4012L20.3787 9.70711C20.3915 9.69427 20.4043 9.68144 20.4171 9.66863C20.7169 9.36871 21.0083 9.07723 21.281 8.86919C21.5884 8.63466 21.9863 8.41421 22.5 8.41421C23.0137 8.41421 23.4116 8.63466 23.719 8.86919C23.9917 9.07723 24.2831 9.36871 24.5829 9.66864C24.5957 9.68145 24.6085 9.69427 24.6213 9.70711L23.9142 10.4142L24.6213 9.70711L26.2929 11.3787C26.3057 11.3915 26.3186 11.4043 26.3314 11.4171C26.6313 11.7169 26.9228 12.0083 27.1308 12.281C27.3653 12.5884 27.5858 12.9863 27.5858 13.5C27.5858 14.0137 27.3653 14.4116 27.1308 14.719C26.9228 14.9917 26.6313 15.2831 26.3314 15.5829C26.3186 15.5957 26.3057 15.6085 26.2929 15.6213L14.5988 27.3154L14.5988 27.3154L13.8917 26.6083L14.5988 27.3154C14.5857 27.3285 14.5723 27.342 14.5586 27.3558C14.4074 27.5079 14.2159 27.7006 13.9741 27.8374M8.6846 21.4012L13.4814 26.9672M8.6846 21.4012C8.67153 21.4143 8.65804 21.4277 8.64423 21.4414C8.49206 21.5926 8.29945 21.7841 8.16256 22.0259L9.03276 22.5185M8.6846 21.4012L9.03276 22.5185M13.9741 27.8374L13.4814 26.9672M13.9741 27.8374C13.9741 27.8374 13.9741 27.8374 13.9742 27.8374L13.4814 26.9672M13.9741 27.8374C13.7324 27.9743 13.4687 28.0394 13.2604 28.0908C13.2415 28.0955 13.223 28.1 13.2051 28.1045L8.55099 29.268C8.53979 29.2708 8.52817 29.2737 8.51617 29.2768C8.36968 29.3136 8.16676 29.3646 7.98714 29.3822C7.78045 29.4024 7.32849 29.4091 6.95971 29.0403L7.66682 28.3332M13.4814 26.9672C13.3632 27.0342 13.2296 27.0676 12.9626 27.1344L8.30845 28.2979C7.94742 28.3881 7.7669 28.4333 7.66682 28.3332M7.66682 28.3332L6.95971 29.0403C6.59093 28.6715 6.59761 28.2196 6.61783 28.0129C6.6354 27.8333 6.68641 27.6303 6.72323 27.4839C6.72624 27.4718 6.72917 27.4602 6.73197 27.449L7.8955 22.7949C7.89999 22.777 7.90454 22.7585 7.90921 22.7396C7.96061 22.5313 8.02568 22.2676 8.16256 22.0259L9.03276 22.5185M7.66682 28.3332L9.03276 22.5185" stroke="#33363F" stroke-width="2"/>
<path d="M18.75 11.25L23.25 8.25L27.75 12.75L24.75 17.25L18.75 11.25Z" fill="#33363F"/>
</svg>
