<svg width="28" height="28" viewBox="0 0 28 28" fill="none" xmlns="http://www.w3.org/2000/svg">
<path d="M3.5 7H5.83333H24.5" stroke="#DE6464" stroke-width="2" stroke-linecap="round" stroke-linejoin="round"/>
<path d="M22.1666 6.99992V23.3333C22.1666 23.9521 21.9208 24.5456 21.4832 24.9832C21.0456 25.4208 20.4521 25.6666 19.8333 25.6666H8.16659C7.54775 25.6666 6.95425 25.4208 6.51667 24.9832C6.07908 24.5456 5.83325 23.9521 5.83325 23.3333V6.99992M9.33325 6.99992V4.66659C9.33325 4.04775 9.57909 3.45425 10.0167 3.01667C10.4543 2.57908 11.0477 2.33325 11.6666 2.33325H16.3333C16.9521 2.33325 17.5456 2.57908 17.9832 3.01667C18.4208 3.45425 18.6666 4.04775 18.6666 4.66659V6.99992" stroke="#DE6464" stroke-width="2" stroke-linecap="round" stroke-linejoin="round"/>
<path d="M11.6667 12.8333V19.8333" stroke="#DE6464" stroke-width="2" stroke-linecap="round" stroke-linejoin="round"/>
<path d="M16.3333 12.8333V19.8333" stroke="#DE6464" stroke-width="2" stroke-linecap="round" stroke-linejoin="round"/>
</svg>
